<?xml version="1.0" encoding="UTF-8"?>
<!DOCTYPE svg PUBLIC "-//W3C//DTD SVG 1.1//EN" "http://www.w3.org/Graphics/SVG/1.1/DTD/svg11.dtd">
<svg version="1.2" width="50.02mm" height="43.01mm" viewBox="20522 1300 5002 4301" preserveAspectRatio="xMidYMid" fill-rule="evenodd" stroke-width="28.222" stroke-linejoin="round" xmlns="http://www.w3.org/2000/svg" xmlns:ooo="http://xml.openoffice.org/svg/export" xmlns:xlink="http://www.w3.org/1999/xlink" xmlns:presentation="http://sun.com/xmlns/staroffice/presentation" xmlns:smil="http://www.w3.org/2001/SMIL20/" xmlns:anim="urn:oasis:names:tc:opendocument:xmlns:animation:1.0" xml:space="preserve">
 <defs class="EmbeddedBulletChars">
  <g id="bullet-char-template-57356" transform="scale(0.00048828125,-0.00048828125)">
   <path d="M 580,1141 L 1163,571 580,0 -4,571 580,1141 Z"/>
  </g>
  <g id="bullet-char-template-57354" transform="scale(0.00048828125,-0.00048828125)">
   <path d="M 8,1128 L 1137,1128 1137,0 8,0 8,1128 Z"/>
  </g>
  <g id="bullet-char-template-10146" transform="scale(0.00048828125,-0.00048828125)">
   <path d="M 174,0 L 602,739 174,1481 1456,739 174,0 Z M 1358,739 L 309,1346 659,739 1358,739 Z"/>
  </g>
  <g id="bullet-char-template-10132" transform="scale(0.00048828125,-0.00048828125)">
   <path d="M 2015,739 L 1276,0 717,0 1260,543 174,543 174,936 1260,936 717,1481 1274,1481 2015,739 Z"/>
  </g>
  <g id="bullet-char-template-10007" transform="scale(0.00048828125,-0.00048828125)">
   <path d="M 0,-2 C -7,14 -16,27 -25,37 L 356,567 C 262,823 215,952 215,954 215,979 228,992 255,992 264,992 276,990 289,987 310,991 331,999 354,1012 L 381,999 492,748 772,1049 836,1024 860,1049 C 881,1039 901,1025 922,1006 886,937 835,863 770,784 769,783 710,716 594,584 L 774,223 C 774,196 753,168 711,139 L 727,119 C 717,90 699,76 672,76 641,76 570,178 457,381 L 164,-76 C 142,-110 111,-127 72,-127 30,-127 9,-110 8,-76 1,-67 -2,-52 -2,-32 -2,-23 -1,-13 0,-2 Z"/>
  </g>
  <g id="bullet-char-template-10004" transform="scale(0.00048828125,-0.00048828125)">
   <path d="M 285,-33 C 182,-33 111,30 74,156 52,228 41,333 41,471 41,549 55,616 82,672 116,743 169,778 240,778 293,778 328,747 346,684 L 369,508 C 377,444 397,411 428,410 L 1163,1116 C 1174,1127 1196,1133 1229,1133 1271,1133 1292,1118 1292,1087 L 1292,965 C 1292,929 1282,901 1262,881 L 442,47 C 390,-6 338,-33 285,-33 Z"/>
  </g>
  <g id="bullet-char-template-9679" transform="scale(0.00048828125,-0.00048828125)">
   <path d="M 813,0 C 632,0 489,54 383,161 276,268 223,411 223,592 223,773 276,916 383,1023 489,1130 632,1184 813,1184 992,1184 1136,1130 1245,1023 1353,916 1407,772 1407,592 1407,412 1353,268 1245,161 1136,54 992,0 813,0 Z"/>
  </g>
  <g id="bullet-char-template-8226" transform="scale(0.00048828125,-0.00048828125)">
   <path d="M 346,457 C 273,457 209,483 155,535 101,586 74,649 74,723 74,796 101,859 155,911 209,963 273,989 346,989 419,989 480,963 531,910 582,859 608,796 608,723 608,648 583,586 532,535 482,483 420,457 346,457 Z"/>
  </g>
  <g id="bullet-char-template-8211" transform="scale(0.00048828125,-0.00048828125)">
   <path d="M -4,459 L 1135,459 1135,606 -4,606 -4,459 Z"/>
  </g>
  <g id="bullet-char-template-61548" transform="scale(0.00048828125,-0.00048828125)">
   <path d="M 173,740 C 173,903 231,1043 346,1159 462,1274 601,1332 765,1332 928,1332 1067,1274 1183,1159 1299,1043 1357,903 1357,740 1357,577 1299,437 1183,322 1067,206 928,148 765,148 601,148 462,206 346,322 231,437 173,577 173,740 Z"/>
  </g>
 </defs>
 <g class="Page">
  <g class="Group">
   <g class="com.sun.star.drawing.ClosedBezierShape">
    <g id="id3">
     <rect class="BoundingBox" stroke="none" fill="none" x="22137" y="1300" width="3387" height="3983"/>
     <path fill="rgb(55,161,205)" stroke="none" d="M 22727,1572 C 22088,2028 21949,2929 22406,3567 22802,4105 23506,4287 24099,4051 L 24918,5149 C 25029,5295 25242,5328 25387,5211 25540,5099 25566,4881 25455,4736 L 24650,3655 C 25070,3166 25120,2433 24724,1889 24260,1251 23365,1110 22727,1572 Z M 23063,2034 C 23450,1757 23979,1845 24256,2225 24533,2612 24453,3139 24066,3416 23685,3692 23158,3611 22874,3225 22597,2844 22684,2316 23063,2034 Z"/>
    </g>
   </g>
   <g class="Group">
    <g class="com.sun.star.drawing.CustomShape">
     <g id="id4">
      <rect class="BoundingBox" stroke="none" fill="none" x="21937" y="4503" width="989" height="398"/>
      <path fill="rgb(55,161,205)" stroke="none" d="M 22925,4701 C 22925,4736 22902,4770 22859,4800 22815,4830 22753,4855 22678,4872 22603,4890 22518,4899 22431,4899 22344,4899 22259,4890 22184,4872 22109,4855 22047,4830 22003,4800 21960,4770 21937,4736 21937,4701 21937,4666 21960,4632 22003,4602 22047,4572 22109,4547 22184,4530 22259,4512 22344,4503 22431,4503 22518,4503 22603,4512 22678,4530 22753,4547 22815,4572 22859,4602 22902,4632 22925,4666 22925,4701 L 22925,4701 Z"/>
     </g>
    </g>
    <g class="Group">
     <g class="com.sun.star.drawing.CustomShape">
      <g id="id5">
       <rect class="BoundingBox" stroke="none" fill="none" x="21937" y="5204" width="989" height="397"/>
       <path fill="rgb(55,161,205)" stroke="none" d="M 22925,5402 C 22925,5437 22902,5471 22859,5501 22815,5531 22753,5556 22678,5573 22603,5591 22518,5600 22431,5600 22344,5600 22259,5591 22184,5573 22109,5556 22047,5531 22003,5501 21960,5471 21937,5437 21937,5402 21937,5367 21960,5333 22003,5303 22047,5273 22109,5248 22184,5231 22259,5213 22344,5204 22431,5204 22518,5204 22603,5213 22678,5231 22753,5248 22815,5273 22859,5303 22902,5333 22925,5367 22925,5402 L 22925,5402 Z"/>
      </g>
     </g>
     <g class="com.sun.star.drawing.ClosedBezierShape">
      <g id="id6">
       <rect class="BoundingBox" stroke="none" fill="none" x="21938" y="4780" width="989" height="629"/>
       <path fill="rgb(55,161,205)" stroke="none" d="M 22860,4878 C 22899,4851 22921,4821 22925,4790 L 22925,5407 21938,5407 21938,4780 21939,4780 C 21939,4815 21962,4848 22005,4878 22048,4908 22111,4933 22186,4950 22261,4968 22346,4977 22432,4977 22519,4977 22604,4968 22679,4950 22754,4933 22817,4908 22860,4878 Z"/>
      </g>
     </g>
    </g>
   </g>
   <g class="Group">
    <g class="com.sun.star.drawing.CustomShape">
     <g id="id7">
      <rect class="BoundingBox" stroke="none" fill="none" x="20522" y="3229" width="989" height="397"/>
      <path fill="rgb(55,161,205)" stroke="none" d="M 21510,3427 C 21510,3462 21487,3496 21444,3526 21400,3556 21338,3581 21263,3598 21188,3616 21103,3625 21016,3625 20929,3625 20844,3616 20769,3598 20694,3581 20632,3556 20588,3526 20545,3496 20522,3462 20522,3427 20522,3392 20545,3358 20588,3328 20632,3298 20694,3273 20769,3256 20844,3238 20929,3229 21016,3229 21103,3229 21188,3238 21263,3256 21338,3273 21400,3298 21444,3328 21487,3358 21510,3392 21510,3427 L 21510,3427 Z"/>
     </g>
    </g>
    <g class="Group">
     <g class="com.sun.star.drawing.CustomShape">
      <g id="id8">
       <rect class="BoundingBox" stroke="none" fill="none" x="20522" y="3930" width="989" height="398"/>
       <path fill="rgb(55,161,205)" stroke="none" d="M 21510,4128 C 21510,4163 21487,4197 21444,4227 21400,4257 21338,4282 21263,4299 21188,4317 21103,4326 21016,4326 20929,4326 20844,4317 20769,4299 20694,4282 20632,4257 20588,4227 20545,4197 20522,4163 20522,4128 20522,4093 20545,4059 20588,4029 20632,3999 20694,3974 20769,3957 20844,3939 20929,3930 21016,3930 21103,3930 21188,3939 21263,3957 21338,3974 21400,3999 21444,4029 21487,4059 21510,4093 21510,4128 L 21510,4128 Z"/>
      </g>
     </g>
     <g class="com.sun.star.drawing.ClosedBezierShape">
      <g id="id9">
       <rect class="BoundingBox" stroke="none" fill="none" x="20522" y="3506" width="989" height="629"/>
       <path fill="rgb(55,161,205)" stroke="none" d="M 21445,3604 C 21483,3577 21506,3547 21510,3516 L 21510,4133 20523,4133 20523,3506 20523,3506 C 20524,3540 20546,3574 20589,3604 20633,3634 20695,3659 20770,3676 20845,3694 20930,3703 21017,3703 21104,3703 21189,3694 21264,3676 21339,3659 21401,3634 21445,3604 Z"/>
      </g>
     </g>
    </g>
   </g>
   <g class="Group">
    <g class="com.sun.star.drawing.CustomShape">
     <g id="id10">
      <rect class="BoundingBox" stroke="none" fill="none" x="20692" y="1398" width="989" height="397"/>
      <path fill="rgb(55,161,205)" stroke="none" d="M 21680,1596 C 21680,1631 21657,1665 21614,1695 21570,1725 21508,1750 21433,1767 21358,1785 21273,1794 21186,1794 21099,1794 21014,1785 20939,1767 20864,1750 20802,1725 20758,1695 20715,1665 20692,1631 20692,1596 20692,1561 20715,1527 20758,1497 20802,1467 20864,1442 20939,1425 21014,1407 21099,1398 21186,1398 21273,1398 21358,1407 21433,1425 21508,1442 21570,1467 21614,1497 21657,1527 21680,1561 21680,1596 L 21680,1596 Z"/>
     </g>
    </g>
    <g class="Group">
     <g class="com.sun.star.drawing.CustomShape">
      <g id="id11">
       <rect class="BoundingBox" stroke="none" fill="none" x="20692" y="2098" width="989" height="398"/>
       <path fill="rgb(55,161,205)" stroke="none" d="M 21680,2296 C 21680,2331 21657,2365 21614,2395 21570,2425 21508,2450 21433,2467 21358,2485 21273,2494 21186,2494 21099,2494 21014,2485 20939,2467 20864,2450 20802,2425 20758,2395 20715,2365 20692,2331 20692,2296 20692,2261 20715,2227 20758,2197 20802,2167 20864,2142 20939,2125 21014,2107 21099,2098 21186,2098 21273,2098 21358,2107 21433,2125 21508,2142 21570,2167 21614,2197 21657,2227 21680,2261 21680,2296 L 21680,2296 Z"/>
      </g>
     </g>
     <g class="com.sun.star.drawing.ClosedBezierShape">
      <g id="id12">
       <rect class="BoundingBox" stroke="none" fill="none" x="20693" y="1674" width="989" height="629"/>
       <path fill="rgb(55,161,205)" stroke="none" d="M 21615,1772 C 21654,1746 21676,1716 21680,1685 L 21680,2302 20693,2302 20693,1675 20694,1675 C 20694,1709 20717,1743 20760,1772 20803,1802 20866,1827 20941,1845 21016,1862 21101,1871 21187,1871 21274,1871 21359,1862 21434,1845 21509,1827 21572,1802 21615,1772 Z"/>
      </g>
     </g>
    </g>
   </g>
  </g>
 </g>
</svg>