<?xml version="1.0" encoding="UTF-8"?>
<!DOCTYPE svg PUBLIC "-//W3C//DTD SVG 1.1//EN" "http://www.w3.org/Graphics/SVG/1.1/DTD/svg11.dtd">
<svg version="1.2" width="50.02mm" height="43.62mm" viewBox="1555 8280 5002 4362" preserveAspectRatio="xMidYMid" fill-rule="evenodd" stroke-width="28.222" stroke-linejoin="round" xmlns="http://www.w3.org/2000/svg" xmlns:ooo="http://xml.openoffice.org/svg/export" xmlns:xlink="http://www.w3.org/1999/xlink" xmlns:presentation="http://sun.com/xmlns/staroffice/presentation" xmlns:smil="http://www.w3.org/2001/SMIL20/" xmlns:anim="urn:oasis:names:tc:opendocument:xmlns:animation:1.0" xml:space="preserve">
 <defs class="EmbeddedBulletChars">
  <g id="bullet-char-template-57356" transform="scale(0.00048828125,-0.00048828125)">
   <path d="M 580,1141 L 1163,571 580,0 -4,571 580,1141 Z"/>
  </g>
  <g id="bullet-char-template-57354" transform="scale(0.00048828125,-0.00048828125)">
   <path d="M 8,1128 L 1137,1128 1137,0 8,0 8,1128 Z"/>
  </g>
  <g id="bullet-char-template-10146" transform="scale(0.00048828125,-0.00048828125)">
   <path d="M 174,0 L 602,739 174,1481 1456,739 174,0 Z M 1358,739 L 309,1346 659,739 1358,739 Z"/>
  </g>
  <g id="bullet-char-template-10132" transform="scale(0.00048828125,-0.00048828125)">
   <path d="M 2015,739 L 1276,0 717,0 1260,543 174,543 174,936 1260,936 717,1481 1274,1481 2015,739 Z"/>
  </g>
  <g id="bullet-char-template-10007" transform="scale(0.00048828125,-0.00048828125)">
   <path d="M 0,-2 C -7,14 -16,27 -25,37 L 356,567 C 262,823 215,952 215,954 215,979 228,992 255,992 264,992 276,990 289,987 310,991 331,999 354,1012 L 381,999 492,748 772,1049 836,1024 860,1049 C 881,1039 901,1025 922,1006 886,937 835,863 770,784 769,783 710,716 594,584 L 774,223 C 774,196 753,168 711,139 L 727,119 C 717,90 699,76 672,76 641,76 570,178 457,381 L 164,-76 C 142,-110 111,-127 72,-127 30,-127 9,-110 8,-76 1,-67 -2,-52 -2,-32 -2,-23 -1,-13 0,-2 Z"/>
  </g>
  <g id="bullet-char-template-10004" transform="scale(0.00048828125,-0.00048828125)">
   <path d="M 285,-33 C 182,-33 111,30 74,156 52,228 41,333 41,471 41,549 55,616 82,672 116,743 169,778 240,778 293,778 328,747 346,684 L 369,508 C 377,444 397,411 428,410 L 1163,1116 C 1174,1127 1196,1133 1229,1133 1271,1133 1292,1118 1292,1087 L 1292,965 C 1292,929 1282,901 1262,881 L 442,47 C 390,-6 338,-33 285,-33 Z"/>
  </g>
  <g id="bullet-char-template-9679" transform="scale(0.00048828125,-0.00048828125)">
   <path d="M 813,0 C 632,0 489,54 383,161 276,268 223,411 223,592 223,773 276,916 383,1023 489,1130 632,1184 813,1184 992,1184 1136,1130 1245,1023 1353,916 1407,772 1407,592 1407,412 1353,268 1245,161 1136,54 992,0 813,0 Z"/>
  </g>
  <g id="bullet-char-template-8226" transform="scale(0.00048828125,-0.00048828125)">
   <path d="M 346,457 C 273,457 209,483 155,535 101,586 74,649 74,723 74,796 101,859 155,911 209,963 273,989 346,989 419,989 480,963 531,910 582,859 608,796 608,723 608,648 583,586 532,535 482,483 420,457 346,457 Z"/>
  </g>
  <g id="bullet-char-template-8211" transform="scale(0.00048828125,-0.00048828125)">
   <path d="M -4,459 L 1135,459 1135,606 -4,606 -4,459 Z"/>
  </g>
  <g id="bullet-char-template-61548" transform="scale(0.00048828125,-0.00048828125)">
   <path d="M 173,740 C 173,903 231,1043 346,1159 462,1274 601,1332 765,1332 928,1332 1067,1274 1183,1159 1299,1043 1357,903 1357,740 1357,577 1299,437 1183,322 1067,206 928,148 765,148 601,148 462,206 346,322 231,437 173,577 173,740 Z"/>
  </g>
 </defs>
 <g class="Page">
  <g class="Group">
   <g class="com.sun.star.drawing.ClosedBezierShape">
    <g id="id3">
     <rect class="BoundingBox" stroke="none" fill="none" x="3205" y="8280" width="1701" height="1701"/>
     <path fill="rgb(55,161,205)" stroke="none" d="M 4905,9130 C 4905,9279 4865,9426 4791,9555 4716,9684 4609,9791 4480,9865 4351,9940 4204,9979 4055,9979 3906,9979 3759,9940 3630,9865 3501,9791 3394,9684 3319,9555 3245,9426 3205,9279 3205,9130 3205,8981 3245,8835 3319,8706 3394,8576 3501,8469 3630,8395 3759,8320 3906,8281 4055,8281 4204,8281 4351,8320 4480,8395 4609,8469 4716,8576 4791,8706 4865,8835 4905,8981 4905,9130 Z"/>
    </g>
   </g>
   <g class="com.sun.star.drawing.ClosedBezierShape">
    <g id="id4">
     <rect class="BoundingBox" stroke="none" fill="none" x="5236" y="8905" width="1077" height="1076"/>
     <path fill="rgb(55,161,205)" stroke="none" d="M 6311,9443 C 6311,9537 6286,9629 6239,9711 6192,9792 6124,9860 6042,9907 5961,9955 5868,9979 5774,9979 5679,9979 5587,9955 5505,9907 5424,9860 5356,9792 5309,9711 5261,9629 5237,9537 5237,9443 5237,9348 5262,9256 5309,9174 5356,9092 5424,9024 5505,8977 5587,8930 5679,8906 5774,8906 5868,8906 5961,8930 6042,8977 6124,9024 6192,9092 6239,9174 6286,9256 6311,9348 6311,9443 Z"/>
    </g>
   </g>
   <g class="com.sun.star.drawing.ClosedBezierShape">
    <g id="id5">
     <rect class="BoundingBox" stroke="none" fill="none" x="1798" y="8905" width="1077" height="1076"/>
     <path fill="rgb(55,161,205)" stroke="none" d="M 2873,9443 C 2873,9537 2849,9629 2801,9711 2754,9792 2686,9860 2605,9907 2523,9955 2431,9979 2336,9979 2242,9979 2149,9955 2068,9907 1986,9860 1918,9792 1871,9711 1824,9629 1799,9537 1799,9443 1799,9348 1824,9256 1871,9174 1918,9092 1986,9024 2068,8977 2149,8930 2242,8906 2336,8906 2431,8906 2523,8930 2605,8977 2686,9024 2754,9092 2801,9174 2848,9256 2873,9348 2873,9443 Z"/>
    </g>
   </g>
   <g class="com.sun.star.drawing.ClosedBezierShape">
    <g id="id6">
     <rect class="BoundingBox" stroke="none" fill="none" x="1555" y="10309" width="1312" height="2016"/>
     <path fill="rgb(55,161,205)" stroke="none" d="M 2218,10311 C 1853,10311 1555,10607 1555,10970 L 1555,12035 C 1555,12193 1684,12322 1842,12322 2526,12322 2444,12334 2444,12292 2444,11537 2354,10983 2865,10461 2654,10288 2463,10311 2218,10311 Z"/>
    </g>
   </g>
   <g class="com.sun.star.drawing.ClosedBezierShape">
    <g id="id7">
     <rect class="BoundingBox" stroke="none" fill="none" x="2728" y="10303" width="2648" height="2339"/>
     <path fill="rgb(55,161,205)" stroke="none" d="M 3169,10579 C 2634,11008 2737,11586 2737,12292 2737,12479 2889,12634 3079,12634 5140,12634 5222,12700 5344,12430 5384,12338 5373,12367 5373,11492 5373,10797 4771,10315 4288,10315 3860,10279 3490,10315 3169,10579 Z"/>
    </g>
   </g>
   <g class="com.sun.star.drawing.ClosedBezierShape">
    <g id="id8">
     <rect class="BoundingBox" stroke="none" fill="none" x="5244" y="10309" width="1313" height="2016"/>
     <path fill="rgb(55,161,205)" stroke="none" d="M 5892,10311 C 5646,10311 5456,10288 5245,10461 5752,10979 5666,11495 5666,12292 5666,12334 5598,12322 6257,12322 6422,12322 6555,12188 6555,12025 L 6555,10970 C 6555,10606 6257,10311 5892,10311 Z"/>
    </g>
   </g>
  </g>
 </g>
</svg>