<?xml version="1.0" encoding="UTF-8"?>
<!DOCTYPE svg PUBLIC "-//W3C//DTD SVG 1.1//EN" "http://www.w3.org/Graphics/SVG/1.1/DTD/svg11.dtd">
<svg version="1.2" width="50.02mm" height="44.91mm" viewBox="9200 21900 5002 4491" preserveAspectRatio="xMidYMid" fill-rule="evenodd" stroke-width="28.222" stroke-linejoin="round" xmlns="http://www.w3.org/2000/svg" xmlns:ooo="http://xml.openoffice.org/svg/export" xmlns:xlink="http://www.w3.org/1999/xlink" xmlns:presentation="http://sun.com/xmlns/staroffice/presentation" xmlns:smil="http://www.w3.org/2001/SMIL20/" xmlns:anim="urn:oasis:names:tc:opendocument:xmlns:animation:1.0" xml:space="preserve">
 <defs class="EmbeddedBulletChars">
  <g id="bullet-char-template-57356" transform="scale(0.00048828125,-0.00048828125)">
   <path d="M 580,1141 L 1163,571 580,0 -4,571 580,1141 Z"/>
  </g>
  <g id="bullet-char-template-57354" transform="scale(0.00048828125,-0.00048828125)">
   <path d="M 8,1128 L 1137,1128 1137,0 8,0 8,1128 Z"/>
  </g>
  <g id="bullet-char-template-10146" transform="scale(0.00048828125,-0.00048828125)">
   <path d="M 174,0 L 602,739 174,1481 1456,739 174,0 Z M 1358,739 L 309,1346 659,739 1358,739 Z"/>
  </g>
  <g id="bullet-char-template-10132" transform="scale(0.00048828125,-0.00048828125)">
   <path d="M 2015,739 L 1276,0 717,0 1260,543 174,543 174,936 1260,936 717,1481 1274,1481 2015,739 Z"/>
  </g>
  <g id="bullet-char-template-10007" transform="scale(0.00048828125,-0.00048828125)">
   <path d="M 0,-2 C -7,14 -16,27 -25,37 L 356,567 C 262,823 215,952 215,954 215,979 228,992 255,992 264,992 276,990 289,987 310,991 331,999 354,1012 L 381,999 492,748 772,1049 836,1024 860,1049 C 881,1039 901,1025 922,1006 886,937 835,863 770,784 769,783 710,716 594,584 L 774,223 C 774,196 753,168 711,139 L 727,119 C 717,90 699,76 672,76 641,76 570,178 457,381 L 164,-76 C 142,-110 111,-127 72,-127 30,-127 9,-110 8,-76 1,-67 -2,-52 -2,-32 -2,-23 -1,-13 0,-2 Z"/>
  </g>
  <g id="bullet-char-template-10004" transform="scale(0.00048828125,-0.00048828125)">
   <path d="M 285,-33 C 182,-33 111,30 74,156 52,228 41,333 41,471 41,549 55,616 82,672 116,743 169,778 240,778 293,778 328,747 346,684 L 369,508 C 377,444 397,411 428,410 L 1163,1116 C 1174,1127 1196,1133 1229,1133 1271,1133 1292,1118 1292,1087 L 1292,965 C 1292,929 1282,901 1262,881 L 442,47 C 390,-6 338,-33 285,-33 Z"/>
  </g>
  <g id="bullet-char-template-9679" transform="scale(0.00048828125,-0.00048828125)">
   <path d="M 813,0 C 632,0 489,54 383,161 276,268 223,411 223,592 223,773 276,916 383,1023 489,1130 632,1184 813,1184 992,1184 1136,1130 1245,1023 1353,916 1407,772 1407,592 1407,412 1353,268 1245,161 1136,54 992,0 813,0 Z"/>
  </g>
  <g id="bullet-char-template-8226" transform="scale(0.00048828125,-0.00048828125)">
   <path d="M 346,457 C 273,457 209,483 155,535 101,586 74,649 74,723 74,796 101,859 155,911 209,963 273,989 346,989 419,989 480,963 531,910 582,859 608,796 608,723 608,648 583,586 532,535 482,483 420,457 346,457 Z"/>
  </g>
  <g id="bullet-char-template-8211" transform="scale(0.00048828125,-0.00048828125)">
   <path d="M -4,459 L 1135,459 1135,606 -4,606 -4,459 Z"/>
  </g>
  <g id="bullet-char-template-61548" transform="scale(0.00048828125,-0.00048828125)">
   <path d="M 173,740 C 173,903 231,1043 346,1159 462,1274 601,1332 765,1332 928,1332 1067,1274 1183,1159 1299,1043 1357,903 1357,740 1357,577 1299,437 1183,322 1067,206 928,148 765,148 601,148 462,206 346,322 231,437 173,577 173,740 Z"/>
  </g>
 </defs>
 <g class="Page">
  <g class="Group">
   <g class="com.sun.star.drawing.ClosedBezierShape">
    <g id="id3">
     <rect class="BoundingBox" stroke="none" fill="none" x="11518" y="22624" width="2684" height="2898"/>
     <path fill="rgb(55,161,205)" stroke="none" d="M 13287,22854 C 13134,23022 13131,23270 13278,23412 13205,23341 13207,23193 13281,23054 13290,23042 13318,23011 13358,23025 13361,23025 13364,23028 13367,23028 13375,23031 13387,23031 13395,23031 13458,23028 13503,22977 13500,22914 13500,22886 13489,22863 13469,22843 13612,22749 13774,22738 13841,22800 L 13844,22800 C 13694,22658 13444,22684 13287,22854 Z M 11740,23850 C 11587,24017 11584,24265 11731,24407 11658,24336 11660,24188 11734,24049 11743,24038 11771,24006 11811,24020 11814,24020 11817,24023 11819,24023 11828,24026 11840,24026 11848,24026 11911,24023 11956,23972 11953,23909 11953,23881 11942,23858 11922,23838 12064,23744 12227,23733 12294,23796 L 12297,23796 C 12147,23656 11896,23679 11740,23850 Z M 13378,24694 C 13225,24862 13222,25110 13369,25252 13296,25180 13299,25032 13372,24893 13381,24882 13409,24851 13449,24865 13452,24865 13455,24867 13458,24867 13466,24870 13478,24870 13486,24870 13549,24867 13594,24816 13591,24754 13591,24725 13580,24703 13560,24683 13702,24589 13865,24578 13932,24640 L 13935,24640 C 13785,24498 13534,24524 13378,24694 Z M 13921,24524 C 14086,24613 14186,24777 14200,24951 L 14200,25036 C 14194,25105 14175,25174 14140,25240 14001,25499 13682,25596 13424,25459 13239,25362 13139,25169 13145,24973 13139,24922 13100,24779 12832,24637 12494,24455 12529,24580 12377,24552 L 12380,24546 C 12218,24674 11993,24703 11800,24600 11541,24461 11444,24143 11581,23884 11718,23625 12039,23525 12294,23665 12306,23671 12315,23677 12323,23682 L 12315,23668 C 12471,23635 12462,23770 12784,23568 13108,23366 12979,23343 13077,23230 L 13082,23238 C 13065,23127 13080,23011 13137,22906 13228,22731 13403,22630 13593,22624 L 13631,22624 C 13711,22627 13794,22646 13873,22684 14132,22823 14228,23142 14092,23401 14041,23500 13961,23574 13868,23622 L 13868,23622 C 13829,23770 13742,23688 13753,24066 13762,24447 13839,24354 13881,24498 L 13868,24498 C 13884,24506 13904,24515 13921,24524 Z M 13324,24594 C 13361,24561 13406,24532 13455,24509 13500,24472 13583,24364 13574,24083 13566,23801 13495,23696 13455,23659 13421,23650 13387,23637 13356,23619 13338,23611 13321,23602 13307,23591 13284,23583 13153,23548 12869,23725 12550,23920 12672,23937 12574,24043 L 12571,24040 C 12579,24086 12579,24131 12576,24177 12582,24214 12625,24339 12903,24490 13159,24626 13281,24609 13324,24594 Z"/>
    </g>
   </g>
   <g class="com.sun.star.drawing.ClosedBezierShape">
    <g id="id4">
     <rect class="BoundingBox" stroke="none" fill="none" x="9200" y="21900" width="2177" height="1970"/>
     <path fill="rgb(55,161,205)" stroke="none" d="M 9561,21900 C 9561,21900 9561,21900 9562,21900 9498,21900 9436,21911 9381,21932 9326,21953 9280,21984 9248,22020 9217,22057 9200,22099 9200,22141 9200,22201 9200,22261 9200,22321 9200,22381 9200,22441 9200,22501 9200,22583 9200,22665 9200,22747 9200,22807 9200,22867 9200,22927 9200,22987 9200,23048 9200,23108 9200,23108 9200,23109 9200,23109 9200,23151 9217,23193 9248,23229 9280,23266 9326,23296 9381,23318 9436,23339 9498,23350 9562,23350 9652,23350 9742,23350 9832,23350 9922,23350 10013,23350 10103,23350 10226,23350 10348,23350 10471,23350 10642,23523 10812,23696 10983,23868 10993,23696 11003,23523 11013,23350 11013,23350 11014,23350 11014,23350 11077,23350 11140,23339 11195,23318 11250,23296 11295,23266 11327,23229 11359,23193 11375,23151 11375,23109 11375,23048 11375,22988 11375,22927 11375,22867 11375,22807 11375,22747 11375,22665 11375,22583 11375,22501 11375,22441 11375,22381 11375,22321 11375,22261 11375,22201 11375,22140 11375,22141 11375,22141 11375,22141 L 11375,22141 C 11375,22099 11359,22057 11327,22020 11295,21984 11250,21953 11195,21932 11140,21911 11077,21900 11014,21900 10923,21900 10833,21900 10742,21900 10652,21900 10561,21900 10471,21900 10348,21900 10226,21900 10103,21900 10013,21900 9922,21900 9832,21900 9742,21900 9651,21900 9561,21900 Z"/>
    </g>
   </g>
   <g class="com.sun.star.drawing.ClosedBezierShape">
    <g id="id5">
     <rect class="BoundingBox" stroke="none" fill="none" x="9200" y="24421" width="2177" height="1970"/>
     <path fill="rgb(55,161,205)" stroke="none" d="M 9561,26390 C 9561,26390 9561,26390 9562,26390 9498,26390 9436,26379 9381,26358 9326,26337 9280,26306 9248,26270 9217,26233 9200,26191 9200,26149 9200,26089 9200,26029 9200,25969 9200,25909 9200,25849 9200,25789 9200,25707 9200,25625 9200,25543 9200,25483 9200,25423 9200,25363 9200,25303 9200,25242 9200,25182 9200,25182 9200,25181 9200,25181 9200,25139 9217,25097 9248,25061 9280,25024 9326,24994 9381,24972 9436,24951 9498,24940 9562,24940 9652,24940 9742,24940 9832,24940 9922,24940 10013,24940 10103,24940 10226,24940 10348,24940 10471,24940 10642,24767 10812,24594 10983,24422 10993,24594 11003,24767 11013,24940 11013,24940 11014,24940 11014,24940 11077,24940 11140,24951 11195,24972 11250,24994 11295,25024 11327,25061 11359,25097 11375,25139 11375,25181 11375,25242 11375,25302 11375,25363 11375,25423 11375,25483 11375,25543 11375,25625 11375,25707 11375,25789 11375,25849 11375,25909 11375,25969 11375,26029 11375,26089 11375,26150 11375,26149 11375,26149 11375,26149 L 11375,26149 C 11375,26191 11359,26233 11327,26270 11295,26306 11250,26337 11195,26358 11140,26379 11077,26390 11014,26390 10923,26390 10833,26390 10742,26390 10652,26390 10561,26390 10471,26390 10348,26390 10226,26390 10103,26390 10013,26390 9922,26390 9832,26390 9742,26390 9651,26390 9561,26390 Z"/>
    </g>
   </g>
  </g>
 </g>
</svg>