<?xml version="1.0" encoding="UTF-8"?>
<!DOCTYPE svg PUBLIC "-//W3C//DTD SVG 1.1//EN" "http://www.w3.org/Graphics/SVG/1.1/DTD/svg11.dtd">
<svg version="1.2" width="45.83mm" height="50.03mm" viewBox="2099 15899 4583 5003" preserveAspectRatio="xMidYMid" fill-rule="evenodd" stroke-width="28.222" stroke-linejoin="round" xmlns="http://www.w3.org/2000/svg" xmlns:ooo="http://xml.openoffice.org/svg/export" xmlns:xlink="http://www.w3.org/1999/xlink" xmlns:presentation="http://sun.com/xmlns/staroffice/presentation" xmlns:smil="http://www.w3.org/2001/SMIL20/" xmlns:anim="urn:oasis:names:tc:opendocument:xmlns:animation:1.0" xml:space="preserve">
 <defs class="EmbeddedBulletChars">
  <g id="bullet-char-template-57356" transform="scale(0.00048828125,-0.00048828125)">
   <path d="M 580,1141 L 1163,571 580,0 -4,571 580,1141 Z"/>
  </g>
  <g id="bullet-char-template-57354" transform="scale(0.00048828125,-0.00048828125)">
   <path d="M 8,1128 L 1137,1128 1137,0 8,0 8,1128 Z"/>
  </g>
  <g id="bullet-char-template-10146" transform="scale(0.00048828125,-0.00048828125)">
   <path d="M 174,0 L 602,739 174,1481 1456,739 174,0 Z M 1358,739 L 309,1346 659,739 1358,739 Z"/>
  </g>
  <g id="bullet-char-template-10132" transform="scale(0.00048828125,-0.00048828125)">
   <path d="M 2015,739 L 1276,0 717,0 1260,543 174,543 174,936 1260,936 717,1481 1274,1481 2015,739 Z"/>
  </g>
  <g id="bullet-char-template-10007" transform="scale(0.00048828125,-0.00048828125)">
   <path d="M 0,-2 C -7,14 -16,27 -25,37 L 356,567 C 262,823 215,952 215,954 215,979 228,992 255,992 264,992 276,990 289,987 310,991 331,999 354,1012 L 381,999 492,748 772,1049 836,1024 860,1049 C 881,1039 901,1025 922,1006 886,937 835,863 770,784 769,783 710,716 594,584 L 774,223 C 774,196 753,168 711,139 L 727,119 C 717,90 699,76 672,76 641,76 570,178 457,381 L 164,-76 C 142,-110 111,-127 72,-127 30,-127 9,-110 8,-76 1,-67 -2,-52 -2,-32 -2,-23 -1,-13 0,-2 Z"/>
  </g>
  <g id="bullet-char-template-10004" transform="scale(0.00048828125,-0.00048828125)">
   <path d="M 285,-33 C 182,-33 111,30 74,156 52,228 41,333 41,471 41,549 55,616 82,672 116,743 169,778 240,778 293,778 328,747 346,684 L 369,508 C 377,444 397,411 428,410 L 1163,1116 C 1174,1127 1196,1133 1229,1133 1271,1133 1292,1118 1292,1087 L 1292,965 C 1292,929 1282,901 1262,881 L 442,47 C 390,-6 338,-33 285,-33 Z"/>
  </g>
  <g id="bullet-char-template-9679" transform="scale(0.00048828125,-0.00048828125)">
   <path d="M 813,0 C 632,0 489,54 383,161 276,268 223,411 223,592 223,773 276,916 383,1023 489,1130 632,1184 813,1184 992,1184 1136,1130 1245,1023 1353,916 1407,772 1407,592 1407,412 1353,268 1245,161 1136,54 992,0 813,0 Z"/>
  </g>
  <g id="bullet-char-template-8226" transform="scale(0.00048828125,-0.00048828125)">
   <path d="M 346,457 C 273,457 209,483 155,535 101,586 74,649 74,723 74,796 101,859 155,911 209,963 273,989 346,989 419,989 480,963 531,910 582,859 608,796 608,723 608,648 583,586 532,535 482,483 420,457 346,457 Z"/>
  </g>
  <g id="bullet-char-template-8211" transform="scale(0.00048828125,-0.00048828125)">
   <path d="M -4,459 L 1135,459 1135,606 -4,606 -4,459 Z"/>
  </g>
  <g id="bullet-char-template-61548" transform="scale(0.00048828125,-0.00048828125)">
   <path d="M 173,740 C 173,903 231,1043 346,1159 462,1274 601,1332 765,1332 928,1332 1067,1274 1183,1159 1299,1043 1357,903 1357,740 1357,577 1299,437 1183,322 1067,206 928,148 765,148 601,148 462,206 346,322 231,437 173,577 173,740 Z"/>
  </g>
 </defs>
 <g class="Page">
  <g class="Group">
   <g class="com.sun.star.drawing.ClosedBezierShape">
    <g id="id3">
     <rect class="BoundingBox" stroke="none" fill="none" x="2099" y="15899" width="3517" height="4378"/>
     <path fill="rgb(55,161,205)" stroke="none" d="M 2725,17306 C 2725,16761 3168,16317 3713,16317 L 5615,16317 C 5546,16077 5328,15900 5067,15900 L 2672,15900 C 2357,15900 2100,16157 2100,16473 L 2100,19702 C 2100,20018 2357,20275 2672,20275 L 2725,20275 2725,17306 Z"/>
    </g>
   </g>
   <g class="com.sun.star.drawing.ClosedBezierShape">
    <g id="id4">
     <rect class="BoundingBox" stroke="none" fill="none" x="3140" y="16733" width="3542" height="4169"/>
     <path fill="rgb(55,161,205)" stroke="none" d="M 3617,17199 L 3617,17199 C 3607,17199 3597,17202 3589,17207 3580,17212 3573,17219 3568,17228 3563,17236 3560,17246 3560,17256 L 3560,17484 3560,17484 C 3560,17494 3563,17504 3568,17513 3573,17521 3580,17528 3589,17533 3597,17538 3607,17541 3617,17541 L 6203,17541 6203,17541 C 6213,17541 6223,17538 6232,17533 6240,17528 6247,17521 6252,17513 6257,17504 6260,17494 6260,17484 L 6260,17256 6260,17256 6260,17256 C 6260,17246 6257,17236 6252,17228 6247,17219 6240,17212 6232,17207 6223,17202 6213,17199 6203,17199 L 3617,17199 Z M 3618,17790 L 3618,17790 C 3608,17790 3598,17793 3590,17798 3581,17803 3574,17810 3569,17819 3564,17827 3561,17837 3561,17847 L 3561,18075 3561,18075 C 3561,18085 3564,18095 3569,18104 3574,18112 3581,18119 3590,18124 3598,18129 3608,18132 3618,18132 L 4063,18132 4063,18132 C 4073,18132 4083,18129 4092,18124 4100,18119 4107,18112 4112,18104 4117,18095 4120,18085 4120,18075 L 4120,17847 4120,17847 4120,17847 C 4120,17837 4117,17827 4112,17819 4107,17810 4100,17803 4092,17798 4083,17793 4073,17790 4063,17790 L 3618,17790 Z M 4363,17791 L 4363,17791 C 4353,17791 4343,17794 4335,17799 4326,17804 4319,17811 4314,17820 4309,17828 4306,17838 4306,17848 L 4306,18076 4306,18076 C 4306,18086 4309,18096 4314,18105 4319,18113 4326,18120 4335,18125 4343,18130 4353,18133 4363,18133 L 6203,18133 6203,18133 C 6213,18133 6223,18130 6232,18125 6240,18120 6247,18113 6252,18105 6257,18096 6260,18086 6260,18076 L 6260,17848 6260,17848 6260,17848 C 6260,17838 6257,17828 6252,17820 6247,17811 6240,17804 6232,17799 6223,17794 6213,17791 6203,17791 L 4363,17791 Z M 3618,18383 L 3618,18383 C 3608,18383 3598,18386 3590,18391 3581,18396 3574,18403 3569,18412 3564,18420 3561,18430 3561,18440 L 3561,18668 3561,18668 C 3561,18678 3564,18688 3569,18697 3574,18705 3581,18712 3590,18717 3598,18722 3608,18725 3618,18725 L 4063,18725 4063,18725 C 4073,18725 4083,18722 4092,18717 4100,18712 4107,18705 4112,18697 4117,18688 4120,18678 4120,18668 L 4120,18440 4120,18440 4120,18440 C 4120,18430 4117,18420 4112,18412 4107,18403 4100,18396 4092,18391 4083,18386 4073,18383 4063,18383 L 3618,18383 Z M 4363,18384 L 4363,18384 C 4353,18384 4343,18387 4335,18392 4326,18397 4319,18404 4314,18413 4309,18421 4306,18431 4306,18441 L 4306,18669 4306,18669 C 4306,18679 4309,18689 4314,18698 4319,18706 4326,18713 4335,18718 4343,18723 4353,18726 4363,18726 L 6203,18726 6203,18726 C 6213,18726 6223,18723 6232,18718 6240,18713 6247,18706 6252,18698 6257,18689 6260,18679 6260,18669 L 6260,18441 6260,18441 6260,18441 C 6260,18431 6257,18421 6252,18413 6247,18404 6240,18397 6232,18392 6223,18387 6213,18384 6203,18384 L 4363,18384 Z M 3590,19576 C 3581,19581 3574,19588 3569,19597 3564,19605 3561,19615 3561,19625 L 3561,19853 3561,19854 C 3561,19864 3564,19874 3569,19882 3574,19891 3581,19898 3590,19903 3598,19908 3608,19911 3618,19911 L 4062,19911 4063,19911 C 4073,19911 4083,19908 4091,19903 4100,19898 4107,19891 4112,19882 4117,19874 4120,19864 4120,19854 L 4120,19625 C 4120,19615 4117,19605 4112,19597 4107,19588 4100,19581 4091,19576 4083,19571 4073,19568 4063,19568 L 3618,19568 C 3608,19568 3598,19571 3590,19576 Z M 4363,19568 L 4363,19568 C 4353,19568 4343,19571 4335,19576 4326,19581 4319,19588 4314,19597 4309,19605 4306,19615 4306,19625 L 4306,19853 4306,19853 C 4306,19863 4309,19873 4314,19882 4319,19890 4326,19897 4335,19902 4343,19907 4353,19910 4363,19910 L 6203,19910 6203,19910 C 6213,19910 6223,19907 6232,19902 6240,19897 6247,19890 6252,19882 6257,19873 6260,19863 6260,19853 L 6260,19625 6260,19625 6260,19625 C 6260,19615 6257,19605 6252,19597 6247,19588 6240,19581 6232,19576 6223,19571 6213,19568 6203,19568 L 4363,19568 Z M 3618,20161 L 3618,20161 C 3608,20161 3598,20164 3590,20169 3581,20174 3574,20181 3569,20190 3564,20198 3561,20208 3561,20218 L 3561,20446 3561,20446 C 3561,20456 3564,20466 3569,20475 3574,20483 3581,20490 3590,20495 3598,20500 3608,20503 3618,20503 L 4063,20503 4063,20503 C 4073,20503 4083,20500 4092,20495 4100,20490 4107,20483 4112,20475 4117,20466 4120,20456 4120,20446 L 4120,20218 4120,20218 4120,20218 C 4120,20208 4117,20198 4112,20190 4107,20181 4100,20174 4092,20169 4083,20164 4073,20161 4063,20161 L 3618,20161 Z M 4363,20162 L 4363,20162 C 4353,20162 4343,20165 4335,20170 4326,20175 4319,20182 4314,20191 4309,20199 4306,20209 4306,20219 L 4306,20447 4306,20447 C 4306,20457 4309,20467 4314,20476 4319,20484 4326,20491 4335,20496 4343,20501 4353,20504 4363,20504 L 6203,20504 6203,20504 C 6213,20504 6223,20501 6232,20496 6240,20491 6247,20484 6252,20476 6257,20467 6260,20457 6260,20447 L 6260,20219 6260,20219 6260,20219 C 6260,20209 6257,20199 6252,20191 6247,20182 6240,20175 6232,20170 6223,20165 6213,20162 6203,20162 L 4363,20162 Z M 3617,18976 L 3617,18976 C 3607,18976 3597,18979 3589,18984 3580,18989 3573,18996 3568,19005 3563,19013 3560,19023 3560,19033 L 3560,19261 3560,19261 C 3560,19271 3563,19281 3568,19290 3573,19298 3580,19305 3589,19310 3597,19315 3607,19318 3617,19318 L 6203,19318 6203,19318 C 6213,19318 6223,19315 6232,19310 6240,19305 6247,19298 6252,19290 6257,19281 6260,19271 6260,19261 L 6260,19033 6260,19033 6260,19033 C 6260,19023 6257,19013 6252,19005 6247,18996 6240,18989 6232,18984 6223,18979 6213,18976 6203,18976 L 3617,18976 Z M 6108,16733 C 6423,16733 6680,16990 6680,17306 L 6680,20327 C 6680,20643 6423,20900 6108,20900 L 3713,20900 C 3398,20900 3141,20643 3141,20327 L 3141,17306 C 3141,16990 3398,16733 3713,16733 L 6108,16733 Z"/>
    </g>
   </g>
  </g>
 </g>
</svg>