<?xml version="1.0" encoding="UTF-8"?>
<!DOCTYPE svg PUBLIC "-//W3C//DTD SVG 1.1//EN" "http://www.w3.org/Graphics/SVG/1.1/DTD/svg11.dtd">
<svg version="1.2" width="50.03mm" height="50.03mm" viewBox="13899 16299 5003 5003" preserveAspectRatio="xMidYMid" fill-rule="evenodd" stroke-width="28.222" stroke-linejoin="round" xmlns="http://www.w3.org/2000/svg" xmlns:ooo="http://xml.openoffice.org/svg/export" xmlns:xlink="http://www.w3.org/1999/xlink" xmlns:presentation="http://sun.com/xmlns/staroffice/presentation" xmlns:smil="http://www.w3.org/2001/SMIL20/" xmlns:anim="urn:oasis:names:tc:opendocument:xmlns:animation:1.0" xml:space="preserve">
 <defs class="EmbeddedBulletChars">
  <g id="bullet-char-template-57356" transform="scale(0.00048828125,-0.00048828125)">
   <path d="M 580,1141 L 1163,571 580,0 -4,571 580,1141 Z"/>
  </g>
  <g id="bullet-char-template-57354" transform="scale(0.00048828125,-0.00048828125)">
   <path d="M 8,1128 L 1137,1128 1137,0 8,0 8,1128 Z"/>
  </g>
  <g id="bullet-char-template-10146" transform="scale(0.00048828125,-0.00048828125)">
   <path d="M 174,0 L 602,739 174,1481 1456,739 174,0 Z M 1358,739 L 309,1346 659,739 1358,739 Z"/>
  </g>
  <g id="bullet-char-template-10132" transform="scale(0.00048828125,-0.00048828125)">
   <path d="M 2015,739 L 1276,0 717,0 1260,543 174,543 174,936 1260,936 717,1481 1274,1481 2015,739 Z"/>
  </g>
  <g id="bullet-char-template-10007" transform="scale(0.00048828125,-0.00048828125)">
   <path d="M 0,-2 C -7,14 -16,27 -25,37 L 356,567 C 262,823 215,952 215,954 215,979 228,992 255,992 264,992 276,990 289,987 310,991 331,999 354,1012 L 381,999 492,748 772,1049 836,1024 860,1049 C 881,1039 901,1025 922,1006 886,937 835,863 770,784 769,783 710,716 594,584 L 774,223 C 774,196 753,168 711,139 L 727,119 C 717,90 699,76 672,76 641,76 570,178 457,381 L 164,-76 C 142,-110 111,-127 72,-127 30,-127 9,-110 8,-76 1,-67 -2,-52 -2,-32 -2,-23 -1,-13 0,-2 Z"/>
  </g>
  <g id="bullet-char-template-10004" transform="scale(0.00048828125,-0.00048828125)">
   <path d="M 285,-33 C 182,-33 111,30 74,156 52,228 41,333 41,471 41,549 55,616 82,672 116,743 169,778 240,778 293,778 328,747 346,684 L 369,508 C 377,444 397,411 428,410 L 1163,1116 C 1174,1127 1196,1133 1229,1133 1271,1133 1292,1118 1292,1087 L 1292,965 C 1292,929 1282,901 1262,881 L 442,47 C 390,-6 338,-33 285,-33 Z"/>
  </g>
  <g id="bullet-char-template-9679" transform="scale(0.00048828125,-0.00048828125)">
   <path d="M 813,0 C 632,0 489,54 383,161 276,268 223,411 223,592 223,773 276,916 383,1023 489,1130 632,1184 813,1184 992,1184 1136,1130 1245,1023 1353,916 1407,772 1407,592 1407,412 1353,268 1245,161 1136,54 992,0 813,0 Z"/>
  </g>
  <g id="bullet-char-template-8226" transform="scale(0.00048828125,-0.00048828125)">
   <path d="M 346,457 C 273,457 209,483 155,535 101,586 74,649 74,723 74,796 101,859 155,911 209,963 273,989 346,989 419,989 480,963 531,910 582,859 608,796 608,723 608,648 583,586 532,535 482,483 420,457 346,457 Z"/>
  </g>
  <g id="bullet-char-template-8211" transform="scale(0.00048828125,-0.00048828125)">
   <path d="M -4,459 L 1135,459 1135,606 -4,606 -4,459 Z"/>
  </g>
  <g id="bullet-char-template-61548" transform="scale(0.00048828125,-0.00048828125)">
   <path d="M 173,740 C 173,903 231,1043 346,1159 462,1274 601,1332 765,1332 928,1332 1067,1274 1183,1159 1299,1043 1357,903 1357,740 1357,577 1299,437 1183,322 1067,206 928,148 765,148 601,148 462,206 346,322 231,437 173,577 173,740 Z"/>
  </g>
 </defs>
 <g class="Page">
  <g class="Group">
   <g class="com.sun.star.drawing.ClosedBezierShape">
    <g id="id3">
     <rect class="BoundingBox" stroke="none" fill="none" x="14202" y="16299" width="4397" height="2346"/>
     <path fill="rgb(55,161,205)" stroke="none" d="M 18158,16300 C 17916,16300 17718,16497 17718,16740 17718,16838 17752,16928 17807,17001 L 17090,17779 C 17056,17771 17022,17765 16986,17765 16896,17765 16812,17792 16743,17839 L 16232,17456 C 16245,17414 16253,17371 16253,17325 16253,17083 16057,16886 15814,16886 15572,16886 15375,17083 15375,17325 15375,17371 15383,17414 15396,17456 L 14886,17839 C 14816,17792 14732,17765 14642,17765 14400,17765 14203,17962 14203,18204 14203,18447 14400,18644 14642,18644 14885,18644 15082,18447 15082,18204 15082,18159 15073,18116 15060,18074 L 15571,17691 C 15640,17738 15724,17765 15814,17765 15904,17765 15988,17738 16057,17691 L 16568,18074 C 16555,18116 16547,18159 16547,18204 16547,18447 16743,18644 16986,18644 17228,18644 17425,18447 17425,18204 17425,18106 17392,18016 17337,17943 L 18054,17165 C 18087,17173 18122,17179 18158,17179 18400,17179 18597,16982 18597,16740 18597,16497 18400,16300 18158,16300 Z"/>
    </g>
   </g>
   <g class="com.sun.star.drawing.ClosedBezierShape">
    <g id="id4">
     <rect class="BoundingBox" stroke="none" fill="none" x="15374" y="18643" width="881" height="2072"/>
     <path fill="rgb(55,161,205)" stroke="none" d="M 16107,18644 L 15521,18644 C 15440,18644 15375,18709 15375,18790 L 15375,20714 16253,20714 16253,18790 C 16253,18709 16188,18644 16107,18644 Z"/>
    </g>
   </g>
   <g class="com.sun.star.drawing.ClosedBezierShape">
    <g id="id5">
     <rect class="BoundingBox" stroke="none" fill="none" x="16546" y="19229" width="881" height="1486"/>
     <path fill="rgb(55,161,205)" stroke="none" d="M 17279,19230 L 16693,19230 C 16612,19230 16547,19295 16547,19376 L 16547,20714 17425,20714 17425,19376 C 17425,19295 17360,19230 17279,19230 Z"/>
    </g>
   </g>
   <g class="com.sun.star.drawing.ClosedBezierShape">
    <g id="id6">
     <rect class="BoundingBox" stroke="none" fill="none" x="17718" y="18057" width="881" height="2658"/>
     <path fill="rgb(55,161,205)" stroke="none" d="M 18451,18058 L 17865,18058 C 17784,18058 17718,18123 17718,18204 L 17718,20714 18597,20714 18597,18204 C 18597,18123 18532,18058 18451,18058 Z"/>
    </g>
   </g>
   <g class="com.sun.star.drawing.ClosedBezierShape">
    <g id="id7">
     <rect class="BoundingBox" stroke="none" fill="none" x="14202" y="19522" width="881" height="1193"/>
     <path fill="rgb(55,161,205)" stroke="none" d="M 14935,19523 L 14349,19523 C 14268,19523 14203,19588 14203,19669 L 14203,20714 15082,20714 15082,19669 C 15082,19588 15016,19523 14935,19523 Z"/>
    </g>
   </g>
   <g class="com.sun.star.drawing.ClosedBezierShape">
    <g id="id8">
     <rect class="BoundingBox" stroke="none" fill="none" x="13899" y="21006" width="5003" height="296"/>
     <path fill="rgb(55,161,205)" stroke="none" d="M 18753,21007 C 18099,21007 17799,21007 17680,21007 17626,21007 17607,21007 17607,21007 17391,21007 16588,21007 14047,21007 13966,21007 13900,21073 13900,21153 13900,21234 13966,21300 14047,21300 15819,21300 17098,21300 18753,21300 18834,21300 18900,21234 18900,21153 18900,21073 18834,21007 18753,21007 Z"/>
    </g>
   </g>
  </g>
 </g>
</svg>