<?xml version="1.0" encoding="UTF-8"?>
<!DOCTYPE svg PUBLIC "-//W3C//DTD SVG 1.1//EN" "http://www.w3.org/Graphics/SVG/1.1/DTD/svg11.dtd">
<svg version="1.2" width="46.13mm" height="50.03mm" viewBox="10999 9499 4613 5003" preserveAspectRatio="xMidYMid" fill-rule="evenodd" stroke-width="28.222" stroke-linejoin="round" xmlns="http://www.w3.org/2000/svg" xmlns:ooo="http://xml.openoffice.org/svg/export" xmlns:xlink="http://www.w3.org/1999/xlink" xmlns:presentation="http://sun.com/xmlns/staroffice/presentation" xmlns:smil="http://www.w3.org/2001/SMIL20/" xmlns:anim="urn:oasis:names:tc:opendocument:xmlns:animation:1.0" xml:space="preserve">
 <defs class="EmbeddedBulletChars">
  <g id="bullet-char-template-57356" transform="scale(0.00048828125,-0.00048828125)">
   <path d="M 580,1141 L 1163,571 580,0 -4,571 580,1141 Z"/>
  </g>
  <g id="bullet-char-template-57354" transform="scale(0.00048828125,-0.00048828125)">
   <path d="M 8,1128 L 1137,1128 1137,0 8,0 8,1128 Z"/>
  </g>
  <g id="bullet-char-template-10146" transform="scale(0.00048828125,-0.00048828125)">
   <path d="M 174,0 L 602,739 174,1481 1456,739 174,0 Z M 1358,739 L 309,1346 659,739 1358,739 Z"/>
  </g>
  <g id="bullet-char-template-10132" transform="scale(0.00048828125,-0.00048828125)">
   <path d="M 2015,739 L 1276,0 717,0 1260,543 174,543 174,936 1260,936 717,1481 1274,1481 2015,739 Z"/>
  </g>
  <g id="bullet-char-template-10007" transform="scale(0.00048828125,-0.00048828125)">
   <path d="M 0,-2 C -7,14 -16,27 -25,37 L 356,567 C 262,823 215,952 215,954 215,979 228,992 255,992 264,992 276,990 289,987 310,991 331,999 354,1012 L 381,999 492,748 772,1049 836,1024 860,1049 C 881,1039 901,1025 922,1006 886,937 835,863 770,784 769,783 710,716 594,584 L 774,223 C 774,196 753,168 711,139 L 727,119 C 717,90 699,76 672,76 641,76 570,178 457,381 L 164,-76 C 142,-110 111,-127 72,-127 30,-127 9,-110 8,-76 1,-67 -2,-52 -2,-32 -2,-23 -1,-13 0,-2 Z"/>
  </g>
  <g id="bullet-char-template-10004" transform="scale(0.00048828125,-0.00048828125)">
   <path d="M 285,-33 C 182,-33 111,30 74,156 52,228 41,333 41,471 41,549 55,616 82,672 116,743 169,778 240,778 293,778 328,747 346,684 L 369,508 C 377,444 397,411 428,410 L 1163,1116 C 1174,1127 1196,1133 1229,1133 1271,1133 1292,1118 1292,1087 L 1292,965 C 1292,929 1282,901 1262,881 L 442,47 C 390,-6 338,-33 285,-33 Z"/>
  </g>
  <g id="bullet-char-template-9679" transform="scale(0.00048828125,-0.00048828125)">
   <path d="M 813,0 C 632,0 489,54 383,161 276,268 223,411 223,592 223,773 276,916 383,1023 489,1130 632,1184 813,1184 992,1184 1136,1130 1245,1023 1353,916 1407,772 1407,592 1407,412 1353,268 1245,161 1136,54 992,0 813,0 Z"/>
  </g>
  <g id="bullet-char-template-8226" transform="scale(0.00048828125,-0.00048828125)">
   <path d="M 346,457 C 273,457 209,483 155,535 101,586 74,649 74,723 74,796 101,859 155,911 209,963 273,989 346,989 419,989 480,963 531,910 582,859 608,796 608,723 608,648 583,586 532,535 482,483 420,457 346,457 Z"/>
  </g>
  <g id="bullet-char-template-8211" transform="scale(0.00048828125,-0.00048828125)">
   <path d="M -4,459 L 1135,459 1135,606 -4,606 -4,459 Z"/>
  </g>
  <g id="bullet-char-template-61548" transform="scale(0.00048828125,-0.00048828125)">
   <path d="M 173,740 C 173,903 231,1043 346,1159 462,1274 601,1332 765,1332 928,1332 1067,1274 1183,1159 1299,1043 1357,903 1357,740 1357,577 1299,437 1183,322 1067,206 928,148 765,148 601,148 462,206 346,322 231,437 173,577 173,740 Z"/>
  </g>
 </defs>
 <g class="Page">
  <g class="Group">
   <g class="com.sun.star.drawing.ClosedBezierShape">
    <g id="id3">
     <rect class="BoundingBox" stroke="none" fill="none" x="10999" y="11606" width="2579" height="2437"/>
     <path fill="rgb(55,161,205)" stroke="none" d="M 13471,12333 C 13326,12498 13193,12717 13090,12965 12970,13254 12902,13554 12902,13790 12902,13886 12913,13970 12936,14041 12600,14042 12105,14034 11364,14034 11167,14034 11008,13873 11008,13678 11008,12942 10901,12341 11458,11894 11792,11619 12179,11581 12623,11619 12961,11619 13354,11844 13577,12211 13542,12256 13471,12333 13471,12333 Z"/>
    </g>
   </g>
   <g class="com.sun.star.drawing.ClosedBezierShape">
    <g id="id4">
     <rect class="BoundingBox" stroke="none" fill="none" x="11496" y="9499" width="1772" height="1772"/>
     <path fill="rgb(55,161,205)" stroke="none" d="M 13266,10384 C 13266,10540 13225,10692 13147,10827 13070,10961 12958,11073 12824,11150 12689,11228 12536,11269 12381,11269 12226,11269 12073,11228 11939,11150 11804,11073 11693,10961 11615,10827 11537,10692 11496,10540 11496,10384 11496,10229 11537,10077 11615,9942 11693,9808 11804,9696 11939,9619 12073,9541 12226,9500 12381,9500 12536,9500 12689,9541 12824,9619 12958,9696 13070,9808 13147,9942 13225,10077 13266,10229 13266,10384 Z"/>
    </g>
   </g>
   <g class="com.sun.star.drawing.ClosedBezierShape">
    <g id="id5">
     <rect class="BoundingBox" stroke="none" fill="none" x="13214" y="11541" width="2398" height="2961"/>
     <path fill="rgb(55,161,205)" stroke="none" d="M 13907,12284 L 13686,11739 13750,11700 C 13761,11694 14019,11542 14412,11542 14806,11542 15063,11694 15074,11700 L 15138,11739 14917,12284 C 14901,12288 15004,12392 15039,12438 15040,12437 15317,12818 15420,13065 15541,13355 15610,13657 15610,13894 15610,14094 15561,14239 15460,14338 15318,14476 15099,14500 14840,14500 14776,14500 14709,14498 14640,14497 14566,14495 14490,14494 14412,14494 14334,14494 14258,14495 14184,14497 13839,14505 13542,14511 13365,14338 13263,14239 13214,14094 13214,13894 13214,13658 13283,13358 13403,13070 13506,12821 13638,12602 13783,12437 13784,12437 13920,12287 13907,12284 Z M 14527,13346 C 14450,13319 14365,13286 14318,13249 14299,13234 14302,13204 14303,13195 14332,13053 14510,13101 14571,13138 L 14648,13180 14732,13025 C 14652,12984 14607,12949 14495,12929 L 14495,12816 14319,12816 14319,12941 C 14136,12998 14053,13262 14210,13387 14264,13429 14339,13465 14468,13511 14617,13565 14535,13759 14406,13754 14325,13755 14300,13751 14238,13710 L 14164,13662 14068,13809 C 14152,13865 14228,13919 14319,13926 L 14319,14050 14495,14050 14495,13918 C 14768,13839 14813,13446 14527,13346 Z"/>
    </g>
   </g>
  </g>
 </g>
</svg>