<?xml version="1.0" encoding="UTF-8"?>
<!DOCTYPE svg PUBLIC "-//W3C//DTD SVG 1.1//EN" "http://www.w3.org/Graphics/SVG/1.1/DTD/svg11.dtd">
<svg version="1.2" width="50.03mm" height="40.61mm" viewBox="20900 28700 5003 4061" preserveAspectRatio="xMidYMid" fill-rule="evenodd" stroke-width="28.222" stroke-linejoin="round" xmlns="http://www.w3.org/2000/svg" xmlns:ooo="http://xml.openoffice.org/svg/export" xmlns:xlink="http://www.w3.org/1999/xlink" xmlns:presentation="http://sun.com/xmlns/staroffice/presentation" xmlns:smil="http://www.w3.org/2001/SMIL20/" xmlns:anim="urn:oasis:names:tc:opendocument:xmlns:animation:1.0" xml:space="preserve">
 <defs class="EmbeddedBulletChars">
  <g id="bullet-char-template-57356" transform="scale(0.00048828125,-0.00048828125)">
   <path d="M 580,1141 L 1163,571 580,0 -4,571 580,1141 Z"/>
  </g>
  <g id="bullet-char-template-57354" transform="scale(0.00048828125,-0.00048828125)">
   <path d="M 8,1128 L 1137,1128 1137,0 8,0 8,1128 Z"/>
  </g>
  <g id="bullet-char-template-10146" transform="scale(0.00048828125,-0.00048828125)">
   <path d="M 174,0 L 602,739 174,1481 1456,739 174,0 Z M 1358,739 L 309,1346 659,739 1358,739 Z"/>
  </g>
  <g id="bullet-char-template-10132" transform="scale(0.00048828125,-0.00048828125)">
   <path d="M 2015,739 L 1276,0 717,0 1260,543 174,543 174,936 1260,936 717,1481 1274,1481 2015,739 Z"/>
  </g>
  <g id="bullet-char-template-10007" transform="scale(0.00048828125,-0.00048828125)">
   <path d="M 0,-2 C -7,14 -16,27 -25,37 L 356,567 C 262,823 215,952 215,954 215,979 228,992 255,992 264,992 276,990 289,987 310,991 331,999 354,1012 L 381,999 492,748 772,1049 836,1024 860,1049 C 881,1039 901,1025 922,1006 886,937 835,863 770,784 769,783 710,716 594,584 L 774,223 C 774,196 753,168 711,139 L 727,119 C 717,90 699,76 672,76 641,76 570,178 457,381 L 164,-76 C 142,-110 111,-127 72,-127 30,-127 9,-110 8,-76 1,-67 -2,-52 -2,-32 -2,-23 -1,-13 0,-2 Z"/>
  </g>
  <g id="bullet-char-template-10004" transform="scale(0.00048828125,-0.00048828125)">
   <path d="M 285,-33 C 182,-33 111,30 74,156 52,228 41,333 41,471 41,549 55,616 82,672 116,743 169,778 240,778 293,778 328,747 346,684 L 369,508 C 377,444 397,411 428,410 L 1163,1116 C 1174,1127 1196,1133 1229,1133 1271,1133 1292,1118 1292,1087 L 1292,965 C 1292,929 1282,901 1262,881 L 442,47 C 390,-6 338,-33 285,-33 Z"/>
  </g>
  <g id="bullet-char-template-9679" transform="scale(0.00048828125,-0.00048828125)">
   <path d="M 813,0 C 632,0 489,54 383,161 276,268 223,411 223,592 223,773 276,916 383,1023 489,1130 632,1184 813,1184 992,1184 1136,1130 1245,1023 1353,916 1407,772 1407,592 1407,412 1353,268 1245,161 1136,54 992,0 813,0 Z"/>
  </g>
  <g id="bullet-char-template-8226" transform="scale(0.00048828125,-0.00048828125)">
   <path d="M 346,457 C 273,457 209,483 155,535 101,586 74,649 74,723 74,796 101,859 155,911 209,963 273,989 346,989 419,989 480,963 531,910 582,859 608,796 608,723 608,648 583,586 532,535 482,483 420,457 346,457 Z"/>
  </g>
  <g id="bullet-char-template-8211" transform="scale(0.00048828125,-0.00048828125)">
   <path d="M -4,459 L 1135,459 1135,606 -4,606 -4,459 Z"/>
  </g>
  <g id="bullet-char-template-61548" transform="scale(0.00048828125,-0.00048828125)">
   <path d="M 173,740 C 173,903 231,1043 346,1159 462,1274 601,1332 765,1332 928,1332 1067,1274 1183,1159 1299,1043 1357,903 1357,740 1357,577 1299,437 1183,322 1067,206 928,148 765,148 601,148 462,206 346,322 231,437 173,577 173,740 Z"/>
  </g>
 </defs>
 <g class="Page">
  <g class="Group">
   <g class="Group">
    <g class="Group">
     <g class="com.sun.star.drawing.CustomShape">
      <g id="id3">
       <rect class="BoundingBox" stroke="none" fill="none" x="21101" y="31405" width="355" height="936"/>
       <path fill="rgb(55,161,205)" stroke="none" d="M 21160,31405 L 21160,31405 C 21150,31405 21139,31408 21131,31413 21122,31418 21114,31426 21109,31435 21104,31443 21101,31454 21101,31464 L 21101,32280 21101,32280 C 21101,32290 21104,32301 21109,32310 21114,32318 21122,32326 21131,32331 21139,32336 21150,32339 21160,32339 L 21396,32339 21396,32339 C 21406,32339 21417,32336 21426,32331 21434,32326 21442,32318 21447,32310 21452,32301 21455,32290 21455,32280 L 21455,31464 21455,31464 21455,31464 C 21455,31454 21452,31443 21447,31435 21442,31426 21434,31418 21426,31413 21417,31408 21406,31405 21396,31405 L 21160,31405 Z"/>
      </g>
     </g>
     <g class="com.sun.star.drawing.CustomShape">
      <g id="id4">
       <rect class="BoundingBox" stroke="none" fill="none" x="21736" y="31405" width="357" height="936"/>
       <path fill="rgb(55,161,205)" stroke="none" d="M 21795,31405 L 21795,31405 C 21785,31405 21775,31408 21766,31413 21757,31418 21749,31426 21744,31435 21739,31444 21736,31454 21736,31464 L 21736,32279 21736,32280 C 21736,32290 21739,32300 21744,32309 21749,32318 21757,32326 21766,32331 21775,32336 21785,32339 21795,32339 L 22031,32339 22032,32339 C 22042,32339 22052,32336 22061,32331 22070,32326 22078,32318 22083,32309 22088,32300 22091,32290 22091,32280 L 22091,31464 22091,31464 22091,31464 C 22091,31454 22088,31444 22083,31435 22078,31426 22070,31418 22061,31413 22052,31408 22042,31405 22032,31405 L 21795,31405 Z"/>
      </g>
     </g>
     <g class="com.sun.star.drawing.CustomShape">
      <g id="id5">
       <rect class="BoundingBox" stroke="none" fill="none" x="22371" y="31405" width="355" height="936"/>
       <path fill="rgb(55,161,205)" stroke="none" d="M 22430,31405 L 22430,31405 C 22420,31405 22409,31408 22401,31413 22392,31418 22384,31426 22379,31435 22374,31443 22371,31454 22371,31464 L 22371,32280 22371,32280 C 22371,32290 22374,32301 22379,32310 22384,32318 22392,32326 22401,32331 22409,32336 22420,32339 22430,32339 L 22666,32339 22666,32339 C 22676,32339 22687,32336 22696,32331 22704,32326 22712,32318 22717,32310 22722,32301 22725,32290 22725,32280 L 22725,31464 22725,31464 22725,31464 C 22725,31454 22722,31443 22717,31435 22712,31426 22704,31418 22696,31413 22687,31408 22676,31405 22666,31405 L 22430,31405 Z"/>
      </g>
     </g>
    </g>
    <g class="com.sun.star.drawing.CustomShape">
     <g id="id6">
      <rect class="BoundingBox" stroke="none" fill="none" x="20900" y="32446" width="2030" height="315"/>
      <path fill="rgb(55,161,205)" stroke="none" d="M 20952,32446 L 20952,32446 C 20943,32446 20934,32448 20926,32453 20918,32458 20912,32464 20907,32472 20902,32480 20900,32489 20900,32498 L 20900,32707 20900,32708 C 20900,32717 20902,32726 20907,32734 20912,32742 20918,32748 20926,32753 20934,32758 20943,32760 20952,32760 L 22876,32760 22877,32760 C 22886,32760 22895,32758 22903,32753 22911,32748 22917,32742 22922,32734 22927,32726 22929,32717 22929,32708 L 22929,32498 22929,32498 22929,32498 C 22929,32489 22927,32480 22922,32472 22917,32464 22911,32458 22903,32453 22895,32448 22886,32446 22877,32446 L 20952,32446 Z"/>
     </g>
    </g>
    <g class="com.sun.star.drawing.ClosedBezierShape">
     <g id="id7">
      <rect class="BoundingBox" stroke="none" fill="none" x="20900" y="30603" width="2029" height="701"/>
      <path fill="rgb(55,161,205)" stroke="none" d="M 20920,31063 C 20927,31060 20934,31058 20941,31058 L 21135,31058 21914,30604 22693,31058 22887,31058 C 22894,31058 22901,31060 22907,31063 22913,31067 22918,31072 22922,31078 22925,31084 22927,31091 22927,31098 L 22927,31261 C 22927,31269 22925,31276 22922,31282 22918,31288 22913,31293 22907,31297 22901,31300 22894,31302 22887,31302 L 22886,31302 20941,31302 C 20934,31302 20927,31300 20920,31297 20914,31293 20909,31288 20905,31282 20902,31276 20900,31269 20900,31261 L 20900,31261 20900,31098 C 20900,31091 20902,31084 20905,31078 20909,31072 20914,31067 20920,31063 Z"/>
     </g>
    </g>
   </g>
   <g class="Group">
    <g class="Group">
     <g class="com.sun.star.drawing.CustomShape">
      <g id="id8">
       <rect class="BoundingBox" stroke="none" fill="none" x="24074" y="31405" width="355" height="936"/>
       <path fill="rgb(55,161,205)" stroke="none" d="M 24133,31405 L 24133,31405 C 24123,31405 24112,31408 24104,31413 24095,31418 24087,31426 24082,31435 24077,31443 24074,31454 24074,31464 L 24074,32280 24074,32280 C 24074,32290 24077,32301 24082,32310 24087,32318 24095,32326 24104,32331 24112,32336 24123,32339 24133,32339 L 24369,32339 24369,32339 C 24379,32339 24390,32336 24399,32331 24407,32326 24415,32318 24420,32310 24425,32301 24428,32290 24428,32280 L 24428,31464 24428,31464 24428,31464 C 24428,31454 24425,31443 24420,31435 24415,31426 24407,31418 24399,31413 24390,31408 24379,31405 24369,31405 L 24133,31405 Z"/>
      </g>
     </g>
     <g class="com.sun.star.drawing.CustomShape">
      <g id="id9">
       <rect class="BoundingBox" stroke="none" fill="none" x="24709" y="31405" width="357" height="936"/>
       <path fill="rgb(55,161,205)" stroke="none" d="M 24768,31405 L 24768,31405 C 24758,31405 24748,31408 24739,31413 24730,31418 24722,31426 24717,31435 24712,31444 24709,31454 24709,31464 L 24709,32279 24709,32280 C 24709,32290 24712,32300 24717,32309 24722,32318 24730,32326 24739,32331 24748,32336 24758,32339 24768,32339 L 25004,32339 25005,32339 C 25015,32339 25025,32336 25034,32331 25043,32326 25051,32318 25056,32309 25061,32300 25064,32290 25064,32280 L 25064,31464 25064,31464 25064,31464 C 25064,31454 25061,31444 25056,31435 25051,31426 25043,31418 25034,31413 25025,31408 25015,31405 25005,31405 L 24768,31405 Z"/>
      </g>
     </g>
     <g class="com.sun.star.drawing.CustomShape">
      <g id="id10">
       <rect class="BoundingBox" stroke="none" fill="none" x="25344" y="31405" width="355" height="936"/>
       <path fill="rgb(55,161,205)" stroke="none" d="M 25403,31405 L 25403,31405 C 25393,31405 25382,31408 25374,31413 25365,31418 25357,31426 25352,31435 25347,31443 25344,31454 25344,31464 L 25344,32280 25344,32280 C 25344,32290 25347,32301 25352,32310 25357,32318 25365,32326 25374,32331 25382,32336 25393,32339 25403,32339 L 25639,32339 25639,32339 C 25649,32339 25660,32336 25669,32331 25677,32326 25685,32318 25690,32310 25695,32301 25698,32290 25698,32280 L 25698,31464 25698,31464 25698,31464 C 25698,31454 25695,31443 25690,31435 25685,31426 25677,31418 25669,31413 25660,31408 25649,31405 25639,31405 L 25403,31405 Z"/>
      </g>
     </g>
    </g>
    <g class="com.sun.star.drawing.CustomShape">
     <g id="id11">
      <rect class="BoundingBox" stroke="none" fill="none" x="23872" y="32446" width="2031" height="315"/>
      <path fill="rgb(55,161,205)" stroke="none" d="M 23924,32446 L 23924,32446 C 23915,32446 23906,32448 23898,32453 23890,32458 23884,32464 23879,32472 23874,32480 23872,32489 23872,32498 L 23872,32707 23872,32708 C 23872,32717 23874,32726 23879,32734 23884,32742 23890,32748 23898,32753 23906,32758 23915,32760 23924,32760 L 25848,32760 25849,32760 C 25858,32760 25867,32758 25875,32753 25883,32748 25889,32742 25894,32734 25899,32726 25901,32717 25901,32708 L 25901,32498 25901,32498 25901,32498 C 25901,32489 25899,32480 25894,32472 25889,32464 25883,32458 25875,32453 25867,32448 25858,32446 25849,32446 L 23924,32446 Z"/>
     </g>
    </g>
    <g class="com.sun.star.drawing.ClosedBezierShape">
     <g id="id12">
      <rect class="BoundingBox" stroke="none" fill="none" x="23872" y="30603" width="2029" height="701"/>
      <path fill="rgb(55,161,205)" stroke="none" d="M 23893,31063 C 23899,31060 23906,31058 23913,31058 L 24107,31058 24886,30604 25665,31058 25859,31058 C 25866,31058 25873,31060 25879,31063 25886,31067 25891,31072 25894,31078 25898,31084 25900,31091 25900,31098 L 25900,31261 C 25900,31269 25898,31276 25894,31282 25891,31288 25886,31293 25879,31297 25873,31300 25866,31302 25859,31302 L 25859,31302 23913,31302 C 23906,31302 23899,31300 23893,31297 23887,31293 23882,31288 23878,31282 23874,31276 23873,31269 23873,31261 L 23873,31261 23873,31098 C 23873,31091 23874,31084 23878,31078 23882,31072 23887,31067 23893,31063 Z"/>
     </g>
    </g>
   </g>
   <g class="com.sun.star.drawing.CustomShape">
    <g id="id13">
     <rect class="BoundingBox" stroke="none" fill="none" x="21954" y="28700" width="2896" height="1523"/>
     <path fill="rgb(55,161,205)" stroke="none" d="M 21954,29460 L 22933,28700 22933,29125 23869,29125 23869,28700 24849,29460 23869,30221 23869,29795 22933,29795 22933,30221 21954,29460 Z"/>
    </g>
   </g>
  </g>
 </g>
</svg>