<?xml version="1.0" encoding="UTF-8"?>
<!DOCTYPE svg PUBLIC "-//W3C//DTD SVG 1.1//EN" "http://www.w3.org/Graphics/SVG/1.1/DTD/svg11.dtd">
<svg version="1.2" width="50.03mm" height="49.53mm" viewBox="8999 1349 5003 4953" preserveAspectRatio="xMidYMid" fill-rule="evenodd" stroke-width="28.222" stroke-linejoin="round" xmlns="http://www.w3.org/2000/svg" xmlns:ooo="http://xml.openoffice.org/svg/export" xmlns:xlink="http://www.w3.org/1999/xlink" xmlns:presentation="http://sun.com/xmlns/staroffice/presentation" xmlns:smil="http://www.w3.org/2001/SMIL20/" xmlns:anim="urn:oasis:names:tc:opendocument:xmlns:animation:1.0" xml:space="preserve">
 <defs class="EmbeddedBulletChars">
  <g id="bullet-char-template-57356" transform="scale(0.00048828125,-0.00048828125)">
   <path d="M 580,1141 L 1163,571 580,0 -4,571 580,1141 Z"/>
  </g>
  <g id="bullet-char-template-57354" transform="scale(0.00048828125,-0.00048828125)">
   <path d="M 8,1128 L 1137,1128 1137,0 8,0 8,1128 Z"/>
  </g>
  <g id="bullet-char-template-10146" transform="scale(0.00048828125,-0.00048828125)">
   <path d="M 174,0 L 602,739 174,1481 1456,739 174,0 Z M 1358,739 L 309,1346 659,739 1358,739 Z"/>
  </g>
  <g id="bullet-char-template-10132" transform="scale(0.00048828125,-0.00048828125)">
   <path d="M 2015,739 L 1276,0 717,0 1260,543 174,543 174,936 1260,936 717,1481 1274,1481 2015,739 Z"/>
  </g>
  <g id="bullet-char-template-10007" transform="scale(0.00048828125,-0.00048828125)">
   <path d="M 0,-2 C -7,14 -16,27 -25,37 L 356,567 C 262,823 215,952 215,954 215,979 228,992 255,992 264,992 276,990 289,987 310,991 331,999 354,1012 L 381,999 492,748 772,1049 836,1024 860,1049 C 881,1039 901,1025 922,1006 886,937 835,863 770,784 769,783 710,716 594,584 L 774,223 C 774,196 753,168 711,139 L 727,119 C 717,90 699,76 672,76 641,76 570,178 457,381 L 164,-76 C 142,-110 111,-127 72,-127 30,-127 9,-110 8,-76 1,-67 -2,-52 -2,-32 -2,-23 -1,-13 0,-2 Z"/>
  </g>
  <g id="bullet-char-template-10004" transform="scale(0.00048828125,-0.00048828125)">
   <path d="M 285,-33 C 182,-33 111,30 74,156 52,228 41,333 41,471 41,549 55,616 82,672 116,743 169,778 240,778 293,778 328,747 346,684 L 369,508 C 377,444 397,411 428,410 L 1163,1116 C 1174,1127 1196,1133 1229,1133 1271,1133 1292,1118 1292,1087 L 1292,965 C 1292,929 1282,901 1262,881 L 442,47 C 390,-6 338,-33 285,-33 Z"/>
  </g>
  <g id="bullet-char-template-9679" transform="scale(0.00048828125,-0.00048828125)">
   <path d="M 813,0 C 632,0 489,54 383,161 276,268 223,411 223,592 223,773 276,916 383,1023 489,1130 632,1184 813,1184 992,1184 1136,1130 1245,1023 1353,916 1407,772 1407,592 1407,412 1353,268 1245,161 1136,54 992,0 813,0 Z"/>
  </g>
  <g id="bullet-char-template-8226" transform="scale(0.00048828125,-0.00048828125)">
   <path d="M 346,457 C 273,457 209,483 155,535 101,586 74,649 74,723 74,796 101,859 155,911 209,963 273,989 346,989 419,989 480,963 531,910 582,859 608,796 608,723 608,648 583,586 532,535 482,483 420,457 346,457 Z"/>
  </g>
  <g id="bullet-char-template-8211" transform="scale(0.00048828125,-0.00048828125)">
   <path d="M -4,459 L 1135,459 1135,606 -4,606 -4,459 Z"/>
  </g>
  <g id="bullet-char-template-61548" transform="scale(0.00048828125,-0.00048828125)">
   <path d="M 173,740 C 173,903 231,1043 346,1159 462,1274 601,1332 765,1332 928,1332 1067,1274 1183,1159 1299,1043 1357,903 1357,740 1357,577 1299,437 1183,322 1067,206 928,148 765,148 601,148 462,206 346,322 231,437 173,577 173,740 Z"/>
  </g>
 </defs>
 <g class="Page">
  <g class="Group">
   <g class="com.sun.star.drawing.ClosedBezierShape">
    <g id="id3">
     <rect class="BoundingBox" stroke="none" fill="none" x="8999" y="1349" width="2966" height="2966"/>
     <path fill="rgb(55,161,205)" stroke="none" d="M 9328,3157 C 9355,3247 9391,3334 9437,3415 L 9306,3581 C 9263,3635 9268,3713 9316,3761 L 9542,3988 C 9591,4037 9668,4041 9723,3998 L 9887,3868 C 9972,3917 10062,3954 10156,3981 L 10181,4193 C 10189,4262 10247,4313 10315,4313 L 10635,4313 C 10704,4313 10762,4262 10770,4193 L 10794,3989 C 10895,3963 10991,3923 11082,3873 L 11241,3998 C 11295,4041 11372,4037 11421,3988 L 11647,3762 C 11696,3713 11701,3636 11658,3582 L 11534,3424 C 11585,3335 11626,3240 11652,3141 L 11843,3119 C 11912,3111 11964,3053 11964,2985 L 11964,2664 C 11964,2596 11912,2538 11843,2530 L 11655,2508 C 11629,2410 11591,2316 11541,2228 L 11657,2081 C 11700,2027 11695,1950 11647,1901 L 11421,1675 C 11372,1626 11295,1622 11241,1665 L 11099,1777 C 11007,1723 10908,1682 10804,1654 L 10783,1470 C 10775,1402 10717,1350 10648,1350 L 10328,1350 C 10259,1350 10202,1402 10193,1470 L 10172,1654 C 10066,1683 9964,1726 9870,1782 L 9723,1665 C 9668,1622 9591,1627 9542,1675 L 9316,1901 C 9267,1950 9263,2027 9306,2082 L 9429,2238 C 9380,2327 9342,2422 9318,2520 L 9120,2543 C 9051,2551 9000,2609 9000,2678 L 9000,2998 C 9000,3067 9051,3125 9120,3133 L 9328,3157 Z M 10488,2290 C 10780,2290 11018,2528 11018,2820 11018,3112 10780,3349 10488,3349 10197,3349 9959,3112 9959,2820 9959,2528 10197,2290 10488,2290 Z"/>
    </g>
   </g>
   <g class="com.sun.star.drawing.ClosedBezierShape">
    <g id="id4">
     <rect class="BoundingBox" stroke="none" fill="none" x="11563" y="2868" width="2439" height="2442"/>
     <path fill="rgb(55,161,205)" stroke="none" d="M 13654,3236 L 13485,3093 C 13433,3049 13356,3051 13307,3098 L 13214,3185 C 13135,3147 13051,3120 12965,3105 L 12939,2976 C 12925,2910 12863,2863 12796,2869 L 12575,2887 C 12508,2893 12455,2949 12453,3017 L 12448,3148 C 12364,3178 12284,3220 12211,3273 L 12099,3199 C 12042,3161 11967,3172 11923,3224 L 11780,3394 C 11736,3446 11738,3523 11785,3572 L 11882,3676 C 11849,3752 11824,3832 11811,3914 L 11671,3943 C 11605,3956 11558,4018 11564,4085 L 11583,4306 C 11588,4374 11644,4427 11712,4429 L 11863,4434 C 11890,4505 11926,4574 11969,4637 L 11885,4765 C 11848,4822 11858,4897 11910,4941 L 12079,5084 C 12131,5128 12208,5126 12258,5079 L 12368,4975 C 12440,5009 12516,5034 12595,5049 L 12625,5201 C 12639,5267 12700,5313 12768,5308 L 12989,5289 C 13056,5283 13109,5228 13111,5160 L 13116,5012 C 13197,4984 13273,4945 13343,4897 L 13465,4978 C 13522,5015 13597,5004 13641,4952 L 13784,4783 C 13828,4731 13826,4655 13779,4605 L 13681,4501 C 13717,4425 13743,4345 13758,4262 L 13892,4235 C 13959,4221 14005,4159 14000,4092 L 13981,3871 C 13975,3804 13920,3751 13851,3748 L 13717,3744 C 13689,3666 13652,3592 13605,3523 L 13678,3413 C 13717,3356 13706,3280 13654,3236 Z M 12823,4510 C 12585,4531 12375,4353 12355,4115 12335,3877 12512,3667 12750,3647 12989,3626 13199,3804 13219,4042 13239,4280 13061,4490 12823,4510 Z"/>
    </g>
   </g>
   <g class="com.sun.star.drawing.ClosedBezierShape">
    <g id="id5">
     <rect class="BoundingBox" stroke="none" fill="none" x="9977" y="4322" width="1981" height="1980"/>
     <path fill="rgb(55,161,205)" stroke="none" d="M 10100,5104 C 10032,5111 9980,5167 9979,5236 L 9978,5371 C 9977,5440 10027,5497 10095,5506 L 10195,5519 C 10211,5580 10235,5638 10265,5692 L 10201,5772 C 10158,5825 10161,5901 10209,5950 L 10304,6047 C 10352,6096 10428,6101 10482,6059 L 10562,5997 C 10618,6031 10678,6057 10740,6075 L 10751,6178 C 10758,6246 10815,6298 10883,6298 L 11018,6300 C 11087,6301 11145,6251 11153,6183 L 11165,6085 C 11233,6069 11297,6044 11358,6010 L 11434,6071 C 11487,6114 11563,6111 11612,6063 L 11709,5968 C 11758,5920 11763,5844 11721,5790 L 11664,5715 C 11699,5656 11726,5594 11745,5528 L 11834,5518 C 11902,5511 11954,5455 11954,5386 L 11956,5251 C 11957,5182 11907,5125 11839,5116 L 11752,5105 C 11735,5039 11711,4976 11679,4917 L 11733,4851 C 11776,4797 11773,4721 11725,4672 L 11630,4575 C 11582,4527 11506,4521 11452,4563 L 11387,4613 C 11326,4576 11260,4547 11192,4528 L 11183,4444 C 11176,4376 11119,4324 11051,4324 L 10915,4322 C 10847,4321 10789,4371 10781,4439 L 10770,4523 C 10699,4541 10631,4569 10568,4605 L 10501,4551 C 10448,4508 10371,4511 10323,4559 L 10225,4654 C 10176,4702 10171,4778 10213,4832 L 10270,4906 C 10237,4965 10211,5028 10193,5094 L 10100,5104 Z M 10975,4950 C 11170,4952 11326,5113 11324,5308 11322,5502 11162,5658 10967,5656 10772,5654 10616,5494 10618,5299 10620,5104 10781,4948 10975,4950 Z"/>
    </g>
   </g>
  </g>
 </g>
</svg>