<?xml version="1.0" encoding="UTF-8"?>
<!DOCTYPE svg PUBLIC "-//W3C//DTD SVG 1.1//EN" "http://www.w3.org/Graphics/SVG/1.1/DTD/svg11.dtd">
<svg version="1.2" width="50.02mm" height="46.81mm" viewBox="9602 28650 5002 4681" preserveAspectRatio="xMidYMid" fill-rule="evenodd" stroke-width="28.222" stroke-linejoin="round" xmlns="http://www.w3.org/2000/svg" xmlns:ooo="http://xml.openoffice.org/svg/export" xmlns:xlink="http://www.w3.org/1999/xlink" xmlns:presentation="http://sun.com/xmlns/staroffice/presentation" xmlns:smil="http://www.w3.org/2001/SMIL20/" xmlns:anim="urn:oasis:names:tc:opendocument:xmlns:animation:1.0" xml:space="preserve">
 <defs class="EmbeddedBulletChars">
  <g id="bullet-char-template-57356" transform="scale(0.00048828125,-0.00048828125)">
   <path d="M 580,1141 L 1163,571 580,0 -4,571 580,1141 Z"/>
  </g>
  <g id="bullet-char-template-57354" transform="scale(0.00048828125,-0.00048828125)">
   <path d="M 8,1128 L 1137,1128 1137,0 8,0 8,1128 Z"/>
  </g>
  <g id="bullet-char-template-10146" transform="scale(0.00048828125,-0.00048828125)">
   <path d="M 174,0 L 602,739 174,1481 1456,739 174,0 Z M 1358,739 L 309,1346 659,739 1358,739 Z"/>
  </g>
  <g id="bullet-char-template-10132" transform="scale(0.00048828125,-0.00048828125)">
   <path d="M 2015,739 L 1276,0 717,0 1260,543 174,543 174,936 1260,936 717,1481 1274,1481 2015,739 Z"/>
  </g>
  <g id="bullet-char-template-10007" transform="scale(0.00048828125,-0.00048828125)">
   <path d="M 0,-2 C -7,14 -16,27 -25,37 L 356,567 C 262,823 215,952 215,954 215,979 228,992 255,992 264,992 276,990 289,987 310,991 331,999 354,1012 L 381,999 492,748 772,1049 836,1024 860,1049 C 881,1039 901,1025 922,1006 886,937 835,863 770,784 769,783 710,716 594,584 L 774,223 C 774,196 753,168 711,139 L 727,119 C 717,90 699,76 672,76 641,76 570,178 457,381 L 164,-76 C 142,-110 111,-127 72,-127 30,-127 9,-110 8,-76 1,-67 -2,-52 -2,-32 -2,-23 -1,-13 0,-2 Z"/>
  </g>
  <g id="bullet-char-template-10004" transform="scale(0.00048828125,-0.00048828125)">
   <path d="M 285,-33 C 182,-33 111,30 74,156 52,228 41,333 41,471 41,549 55,616 82,672 116,743 169,778 240,778 293,778 328,747 346,684 L 369,508 C 377,444 397,411 428,410 L 1163,1116 C 1174,1127 1196,1133 1229,1133 1271,1133 1292,1118 1292,1087 L 1292,965 C 1292,929 1282,901 1262,881 L 442,47 C 390,-6 338,-33 285,-33 Z"/>
  </g>
  <g id="bullet-char-template-9679" transform="scale(0.00048828125,-0.00048828125)">
   <path d="M 813,0 C 632,0 489,54 383,161 276,268 223,411 223,592 223,773 276,916 383,1023 489,1130 632,1184 813,1184 992,1184 1136,1130 1245,1023 1353,916 1407,772 1407,592 1407,412 1353,268 1245,161 1136,54 992,0 813,0 Z"/>
  </g>
  <g id="bullet-char-template-8226" transform="scale(0.00048828125,-0.00048828125)">
   <path d="M 346,457 C 273,457 209,483 155,535 101,586 74,649 74,723 74,796 101,859 155,911 209,963 273,989 346,989 419,989 480,963 531,910 582,859 608,796 608,723 608,648 583,586 532,535 482,483 420,457 346,457 Z"/>
  </g>
  <g id="bullet-char-template-8211" transform="scale(0.00048828125,-0.00048828125)">
   <path d="M -4,459 L 1135,459 1135,606 -4,606 -4,459 Z"/>
  </g>
  <g id="bullet-char-template-61548" transform="scale(0.00048828125,-0.00048828125)">
   <path d="M 173,740 C 173,903 231,1043 346,1159 462,1274 601,1332 765,1332 928,1332 1067,1274 1183,1159 1299,1043 1357,903 1357,740 1357,577 1299,437 1183,322 1067,206 928,148 765,148 601,148 462,206 346,322 231,437 173,577 173,740 Z"/>
  </g>
 </defs>
 <g class="Page">
  <g class="com.sun.star.drawing.ClosedBezierShape">
   <g id="id3">
    <rect class="BoundingBox" stroke="none" fill="none" x="9602" y="28650" width="5002" height="4681"/>
    <path fill="rgb(55,161,205)" stroke="none" d="M 10288,31188 C 10304,31180 10321,31175 10338,31175 L 10412,31175 C 10417,31175 10423,31175 10428,31176 10431,31176 10434,31176 10437,31176 L 11146,31176 11146,30649 11146,30612 C 11146,30595 11151,30578 11159,30563 11168,30547 11181,30535 11196,30526 11211,30517 11228,30513 11246,30513 L 11283,30513 11320,30513 12419,30513 12419,30105 12021,30105 C 12000,30105 11979,30102 11959,30096 11939,30091 11920,30083 11902,30073 11883,30062 11867,30049 11852,30035 11838,30020 11825,30004 11814,29986 11804,29967 11796,29948 11791,29928 11785,29908 11782,29887 11782,29867 L 11782,28888 C 11782,28867 11785,28846 11791,28826 11796,28806 11804,28787 11814,28769 11825,28751 11838,28734 11852,28720 11867,28705 11883,28693 11902,28682 11920,28671 11939,28664 11959,28658 11978,28653 11999,28653 12019,28650 L 12020,28650 12021,28650 13091,28650 C 13112,28650 13133,28653 13153,28658 13173,28664 13192,28672 13210,28682 13228,28693 13244,28705 13259,28720 13274,28734 13286,28751 13297,28769 13307,28787 13315,28806 13321,28826 13326,28846 13329,28867 13329,28888 13329,28893 13329,28898 13328,28903 L 13329,29867 C 13329,29887 13326,29908 13321,29928 13315,29948 13307,29967 13297,29986 13286,30004 13274,30020 13259,30035 13244,30049 13228,30062 13210,30073 13192,30083 13173,30091 13153,30096 13133,30102 13112,30105 13091,30105 L 12693,30105 12693,30513 13792,30513 13829,30513 13866,30513 C 13883,30513 13900,30517 13916,30526 13931,30535 13943,30547 13952,30563 13961,30578 13966,30595 13966,30612 L 13966,30649 13966,31875 14364,31875 C 14385,31875 14406,31878 14426,31884 14446,31889 14465,31897 14483,31907 14501,31918 14517,31931 14532,31945 14547,31960 14559,31976 14570,31994 14580,32013 14588,32032 14594,32052 14599,32072 14602,32093 14602,32113 14602,32118 14602,32123 14601,32129 L 14602,33092 C 14602,33113 14599,33134 14594,33154 14588,33174 14580,33193 14570,33211 14559,33229 14547,33246 14532,33260 14517,33275 14501,33287 14483,33298 14465,33308 14446,33316 14426,33322 14406,33327 14385,33330 14364,33330 L 13294,33330 C 13273,33330 13252,33327 13232,33322 13212,33316 13193,33308 13174,33298 13156,33287 13140,33275 13125,33260 13111,33246 13098,33229 13087,33211 13077,33193 13069,33174 13064,33154 13058,33134 13055,33113 13055,33092 L 13055,32113 C 13055,32093 13058,32072 13064,32052 13069,32032 13077,32013 13087,31994 13098,31976 13111,31960 13125,31945 13140,31931 13156,31918 13174,31907 13193,31896 13212,31889 13232,31884 13251,31878 13272,31878 13292,31875 L 13293,31875 13294,31875 13692,31875 13692,30786 11420,30786 11420,31176 12065,31176 12100,31176 12139,31176 C 12156,31176 12174,31180 12189,31189 12204,31198 12217,31211 12225,31226 12234,31241 12239,31258 12239,31276 L 12239,31875 12637,31875 C 12658,31875 12679,31878 12699,31884 12719,31889 12738,31897 12756,31907 12774,31918 12791,31931 12805,31945 12820,31960 12833,31976 12843,31994 12854,32013 12862,32032 12867,32052 12873,32072 12875,32093 12875,32113 12875,32118 12875,32123 12874,32129 L 12875,33092 C 12875,33113 12873,33134 12867,33154 12862,33174 12854,33193 12843,33211 12833,33229 12820,33246 12805,33260 12791,33275 12774,33287 12756,33298 12738,33308 12719,33316 12699,33322 12679,33327 12658,33330 12637,33330 L 11567,33330 C 11546,33330 11525,33327 11505,33322 11485,33316 11466,33308 11448,33298 11430,33287 11413,33275 11399,33260 11384,33246 11371,33229 11361,33211 11350,33193 11342,33174 11337,33154 11331,33134 11329,33113 11329,33092 L 11329,32113 C 11329,32093 11331,32072 11337,32052 11342,32032 11350,32013 11361,31994 11371,31976 11384,31960 11399,31945 11413,31931 11430,31918 11448,31907 11466,31896 11485,31889 11505,31884 11524,31878 11545,31878 11565,31875 L 11566,31875 11567,31875 11965,31875 11965,31449 10512,31449 10512,31875 10910,31875 C 10931,31875 10952,31878 10972,31884 10992,31889 11011,31897 11030,31907 11048,31918 11064,31931 11079,31945 11093,31960 11106,31976 11117,31994 11127,32013 11135,32032 11140,32052 11146,32072 11149,32093 11149,32113 11149,32118 11149,32123 11148,32129 L 11149,33092 C 11149,33113 11146,33134 11140,33154 11135,33174 11127,33193 11117,33211 11106,33229 11093,33246 11079,33260 11064,33275 11048,33287 11030,33298 11011,33308 10992,33316 10972,33322 10952,33327 10931,33330 10910,33330 L 9840,33330 C 9819,33330 9798,33327 9778,33322 9758,33316 9739,33308 9721,33298 9703,33287 9687,33275 9672,33260 9657,33246 9645,33229 9634,33211 9624,33193 9616,33174 9610,33154 9605,33134 9602,33113 9602,33092 L 9602,32113 C 9602,32093 9605,32072 9610,32052 9616,32032 9624,32013 9634,31994 9645,31976 9657,31960 9672,31945 9687,31931 9703,31918 9721,31907 9739,31896 9758,31889 9778,31884 9797,31878 9818,31878 9838,31875 L 9839,31875 9840,31875 10238,31875 10238,31275 C 10238,31257 10243,31240 10252,31225 10261,31210 10273,31197 10288,31188 Z M 12055,29832 L 13056,29832 13055,28923 12055,28923 12055,29832 Z M 13328,33057 L 14329,33057 14328,32148 13328,32148 13328,33057 Z M 11601,33057 L 12603,33057 12602,32148 11601,32148 11601,33057 Z M 9875,33057 L 10876,33057 10875,32148 9875,32148 9875,33057 Z"/>
   </g>
  </g>
 </g>
</svg>